<?xml version="1.0" standalone="no"?>
<!DOCTYPE svg PUBLIC "-//W3C//DTD SVG 20010904//EN"
 "http://www.w3.org/TR/2001/REC-SVG-20010904/DTD/svg10.dtd">
<svg version="1.0" xmlns="http://www.w3.org/2000/svg"
 width="64.000000pt" height="64.000000pt" viewBox="0 0 64.000000 64.000000"
 preserveAspectRatio="xMidYMid meet">

<g transform="translate(0.000000,64.000000) scale(0.100000,-0.100000)"
fill="#000000" stroke="none">
<path d="M273 605 c-48 -20 -67 -58 -64 -123 1 -28 166 -202 191 -202 26 0
186 170 193 206 17 90 -88 160 -166 109 -23 -14 -28 -15 -49 -2 -36 23 -70 27
-105 12z m95 -21 c12 -8 20 -20 17 -25 -11 -17 7 -9 37 16 42 35 91 34 129 -4
21 -21 29 -39 29 -65 0 -31 -10 -45 -86 -118 -47 -46 -90 -85 -95 -86 -5 -2
-48 34 -94 81 -76 76 -85 88 -85 121 0 75 88 122 148 80z"/>
<path d="M350 525 c-8 -9 -8 -15 -2 -15 12 0 26 19 19 26 -2 2 -10 -2 -17 -11z"/>
<path d="M100 273 c-53 -7 -60 -18 -60 -93 0 -85 9 -94 78 -79 49 12 52 11
130 -30 45 -22 95 -41 112 -41 37 0 265 113 274 136 10 25 -12 54 -40 54 -15
0 -53 -7 -85 -15 -54 -14 -61 -14 -75 0 -9 8 -28 15 -44 15 -15 0 -57 13 -92
30 -63 30 -101 34 -198 23z m183 -30 c29 -15 72 -29 97 -32 37 -5 46 -10 48
-28 6 -39 -49 -51 -138 -29 -21 5 -20 4 5 -8 53 -26 121 -17 150 20 10 13 118
44 153 44 22 0 32 -17 24 -38 -6 -17 -235 -132 -262 -132 -11 0 -57 18 -102
41 -83 42 -99 44 -176 23 -23 -6 -23 -6 -20 72 l3 79 40 6 c87 13 125 9 178
-18z"/>
<path d="M90 230 c0 -5 5 -10 10 -10 6 0 10 5 10 10 0 6 -4 10 -10 10 -5 0
-10 -4 -10 -10z"/>
<path d="M90 180 c0 -5 5 -10 10 -10 6 0 10 5 10 10 0 6 -4 10 -10 10 -5 0
-10 -4 -10 -10z"/>
<path d="M90 130 c0 -5 5 -10 10 -10 6 0 10 5 10 10 0 6 -4 10 -10 10 -5 0
-10 -4 -10 -10z"/>
</g>
</svg>
